P3
49 48
255
237 28 36 237 28 36 237 28 36 237 28 36 237 28 36 237 28 36 237 28 36 237 28 36 237 28 36 237 28 36 237 28 36 237 28 36 237 28 36 237 28 36 237 28 36 237 28 36 237 28 36 237 28 36 237 28 36 237 28 36 237 28 36 237 28 36 237 28 36 237 28 36 237 28 36 237 28 36 237 28 36 237 28 36 237 28 36 237 28 36 237 28 36 237 28 36 237 28 36 237 28 36 237 28 36 237 28 36 237 28 36 237 28 36 237 28 36 237 28 36 237 28 36 237 28 36 237 28 36 237 28 36 237 28 36 237 28 36 237 28 36 237 28 36 237 28 36 
237 28 36 237 28 36 237 28 36 237 28 36 237 28 36 237 28 36 237 28 36 237 28 36 237 28 36 237 28 36 237 28 36 237 28 36 237 28 36 237 28 36 237 28 36 237 28 36 237 28 36 237 28 36 237 28 36 237 28 36 237 28 36 237 28 36 237 28 36 237 28 36 237 28 36 237 28 36 237 28 36 237 28 36 237 28 36 237 28 36 237 28 36 237 28 36 237 28 36 237 28 36 237 28 36 237 28 36 237 28 36 237 28 36 237 28 36 237 28 36 237 28 36 237 28 36 237 28 36 237 28 36 237 28 36 237 28 36 237 28 36 237 28 36 237 28 36 
237 28 36 237 28 36 237 28 36 237 28 36 237 28 36 237 28 36 237 28 36 237 28 36 237 28 36 237 28 36 237 28 36 237 28 36 237 28 36 237 28 36 237 28 36 237 28 36 237 28 36 237 28 36 237 28 36 237 28 36 237 28 36 237 28 36 237 28 36 237 28 36 237 28 36 237 28 36 237 28 36 237 28 36 237 28 36 237 28 36 237 28 36 237 28 36 237 28 36 237 28 36 237 28 36 237 28 36 237 28 36 237 28 36 237 28 36 237 28 36 237 28 36 237 28 36 237 28 36 237 28 36 237 28 36 237 28 36 237 28 36 237 28 36 237 28 36 
237 28 36 237 28 36 237 28 36 237 28 36 237 28 36 237 28 36 237 28 36 237 28 36 237 28 36 237 28 36 237 28 36 237 28 36 237 28 36 237 28 36 237 28 36 237 28 36 237 28 36 237 28 36 237 28 36 237 28 36 237 28 36 237 28 36 237 28 36 237 28 36 237 28 36 237 28 36 237 28 36 237 28 36 237 28 36 237 28 36 237 28 36 237 28 36 237 28 36 237 28 36 237 28 36 237 28 36 237 28 36 237 28 36 237 28 36 237 28 36 237 28 36 237 28 36 237 28 36 237 28 36 237 28 36 237 28 36 237 28 36 237 28 36 237 28 36 
237 28 36 237 28 36 237 28 36 255 242 0 255 242 0 255 242 0 255 242 0 255 242 0 255 242 0 255 242 0 255 242 0 255 242 0 255 242 0 255 242 0 255 242 0 255 242 0 255 242 0 255 242 0 255 242 0 255 242 0 255 242 0 255 242 0 255 242 0 255 242 0 255 242 0 255 242 0 255 242 0 255 242 0 255 242 0 255 242 0 255 242 0 255 242 0 255 242 0 255 242 0 255 242 0 255 242 0 255 242 0 255 242 0 255 242 0 255 242 0 255 242 0 255 242 0 255 242 0 255 242 0 255 242 0 237 28 36 237 28 36 237 28 36 237 28 36 
237 28 36 237 28 36 237 28 36 255 242 0 255 242 0 255 242 0 255 242 0 255 242 0 255 242 0 255 242 0 255 242 0 255 242 0 255 242 0 255 242 0 255 242 0 255 242 0 255 242 0 255 242 0 255 242 0 255 242 0 255 242 0 255 242 0 255 242 0 255 242 0 255 242 0 255 242 0 255 242 0 255 242 0 255 242 0 255 242 0 255 242 0 255 242 0 255 242 0 255 242 0 255 242 0 255 242 0 255 242 0 255 242 0 255 242 0 255 242 0 255 242 0 255 242 0 255 242 0 255 242 0 255 242 0 237 28 36 237 28 36 237 28 36 237 28 36 
237 28 36 237 28 36 237 28 36 255 242 0 255 242 0 255 242 0 255 242 0 255 242 0 255 242 0 255 242 0 255 242 0 255 242 0 255 242 0 255 242 0 255 242 0 255 242 0 255 242 0 255 242 0 255 242 0 255 242 0 255 242 0 255 242 0 255 242 0 255 242 0 255 242 0 255 242 0 255 242 0 255 242 0 255 242 0 255 242 0 255 242 0 255 242 0 255 242 0 255 242 0 255 242 0 255 242 0 255 242 0 255 242 0 255 242 0 255 242 0 255 242 0 255 242 0 255 242 0 255 242 0 255 242 0 237 28 36 237 28 36 237 28 36 237 28 36 
237 28 36 237 28 36 237 28 36 255 242 0 255 242 0 255 242 0 255 242 0 255 242 0 255 242 0 255 242 0 255 242 0 255 242 0 255 242 0 255 242 0 255 242 0 255 242 0 255 242 0 255 242 0 255 242 0 255 242 0 255 242 0 255 242 0 255 242 0 255 242 0 255 242 0 255 242 0 255 242 0 255 242 0 255 242 0 255 242 0 255 242 0 255 242 0 255 242 0 255 242 0 255 242 0 255 242 0 255 242 0 255 242 0 255 242 0 255 242 0 255 242 0 255 242 0 255 242 0 255 242 0 255 242 0 237 28 36 237 28 36 237 28 36 237 28 36 
237 28 36 237 28 36 237 28 36 255 242 0 255 242 0 255 242 0 255 242 0 255 242 0 255 242 0 255 242 0 255 242 0 255 242 0 255 242 0 255 242 0 255 242 0 255 242 0 255 242 0 255 242 0 255 242 0 255 242 0 255 242 0 255 242 0 255 242 0 255 242 0 255 242 0 255 242 0 255 242 0 255 242 0 255 242 0 255 242 0 255 242 0 255 242 0 255 242 0 255 242 0 255 242 0 255 242 0 255 242 0 255 242 0 255 242 0 255 242 0 255 242 0 255 242 0 255 242 0 255 242 0 255 242 0 237 28 36 237 28 36 237 28 36 237 28 36 
237 28 36 237 28 36 237 28 36 255 242 0 255 242 0 255 242 0 255 242 0 255 242 0 255 242 0 255 242 0 255 242 0 255 242 0 255 242 0 255 242 0 255 242 0 255 242 0 255 242 0 255 242 0 255 242 0 255 242 0 255 242 0 255 242 0 255 242 0 255 242 0 255 242 0 255 242 0 255 242 0 255 242 0 255 242 0 255 242 0 255 242 0 255 242 0 255 242 0 255 242 0 255 242 0 255 242 0 255 242 0 255 242 0 255 242 0 255 242 0 255 242 0 255 242 0 255 242 0 255 242 0 255 242 0 237 28 36 237 28 36 237 28 36 237 28 36 
237 28 36 237 28 36 237 28 36 255 242 0 255 242 0 255 242 0 255 242 0 255 242 0 255 242 0 255 242 0 255 242 0 255 242 0 255 242 0 255 242 0 255 242 0 255 242 0 255 242 0 255 242 0 255 242 0 255 242 0 255 242 0 255 242 0 255 242 0 255 242 0 255 242 0 255 242 0 255 242 0 255 242 0 255 242 0 255 242 0 255 242 0 255 242 0 255 242 0 255 242 0 255 242 0 255 242 0 255 242 0 255 242 0 255 242 0 255 242 0 255 242 0 255 242 0 255 242 0 255 242 0 255 242 0 237 28 36 237 28 36 237 28 36 237 28 36 
237 28 36 237 28 36 237 28 36 237 28 36 237 28 36 237 28 36 237 28 36 237 28 36 237 28 36 237 28 36 237 28 36 237 28 36 237 28 36 237 28 36 237 28 36 237 28 36 237 28 36 237 28 36 237 28 36 237 28 36 237 28 36 237 28 36 237 28 36 237 28 36 237 28 36 237 28 36 237 28 36 237 28 36 237 28 36 237 28 36 237 28 36 237 28 36 237 28 36 237 28 36 237 28 36 237 28 36 237 28 36 237 28 36 237 28 36 237 28 36 237 28 36 237 28 36 237 28 36 237 28 36 237 28 36 237 28 36 237 28 36 237 28 36 237 28 36 
237 28 36 237 28 36 237 28 36 237 28 36 237 28 36 237 28 36 237 28 36 237 28 36 237 28 36 237 28 36 237 28 36 237 28 36 237 28 36 237 28 36 237 28 36 237 28 36 237 28 36 237 28 36 237 28 36 237 28 36 237 28 36 237 28 36 237 28 36 237 28 36 237 28 36 237 28 36 237 28 36 237 28 36 237 28 36 237 28 36 237 28 36 237 28 36 237 28 36 237 28 36 237 28 36 237 28 36 237 28 36 237 28 36 237 28 36 237 28 36 237 28 36 237 28 36 237 28 36 237 28 36 237 28 36 237 28 36 237 28 36 237 28 36 237 28 36 
237 28 36 237 28 36 237 28 36 237 28 36 237 28 36 237 28 36 237 28 36 237 28 36 237 28 36 237 28 36 237 28 36 237 28 36 237 28 36 237 28 36 237 28 36 237 28 36 237 28 36 237 28 36 237 28 36 237 28 36 237 28 36 237 28 36 237 28 36 237 28 36 237 28 36 237 28 36 237 28 36 237 28 36 237 28 36 237 28 36 237 28 36 237 28 36 237 28 36 237 28 36 237 28 36 237 28 36 237 28 36 237 28 36 237 28 36 237 28 36 237 28 36 237 28 36 237 28 36 237 28 36 237 28 36 237 28 36 237 28 36 237 28 36 237 28 36 
237 28 36 237 28 36 237 28 36 237 28 36 237 28 36 237 28 36 237 28 36 237 28 36 237 28 36 237 28 36 237 28 36 237 28 36 237 28 36 237 28 36 237 28 36 237 28 36 237 28 36 237 28 36 237 28 36 237 28 36 237 28 36 237 28 36 237 28 36 237 28 36 237 28 36 237 28 36 237 28 36 237 28 36 237 28 36 237 28 36 237 28 36 237 28 36 237 28 36 237 28 36 237 28 36 237 28 36 237 28 36 237 28 36 237 28 36 237 28 36 237 28 36 237 28 36 237 28 36 237 28 36 237 28 36 237 28 36 237 28 36 237 28 36 237 28 36 
237 28 36 237 28 36 237 28 36 237 28 36 237 28 36 237 28 36 237 28 36 237 28 36 237 28 36 237 28 36 237 28 36 237 28 36 237 28 36 237 28 36 237 28 36 237 28 36 237 28 36 237 28 36 237 28 36 237 28 36 237 28 36 237 28 36 237 28 36 237 28 36 237 28 36 237 28 36 237 28 36 237 28 36 237 28 36 237 28 36 237 28 36 237 28 36 237 28 36 237 28 36 237 28 36 237 28 36 237 28 36 237 28 36 237 28 36 237 28 36 237 28 36 237 28 36 237 28 36 237 28 36 237 28 36 237 28 36 237 28 36 237 28 36 237 28 36 
237 28 36 237 28 36 237 28 36 237 28 36 237 28 36 237 28 36 237 28 36 237 28 36 237 28 36 237 28 36 237 28 36 237 28 36 237 28 36 237 28 36 237 28 36 237 28 36 237 28 36 237 28 36 237 28 36 237 28 36 237 28 36 237 28 36 237 28 36 237 28 36 237 28 36 237 28 36 237 28 36 237 28 36 237 28 36 237 28 36 237 28 36 237 28 36 237 28 36 237 28 36 237 28 36 237 28 36 237 28 36 237 28 36 237 28 36 237 28 36 237 28 36 237 28 36 237 28 36 237 28 36 237 28 36 237 28 36 237 28 36 237 28 36 237 28 36 
237 28 36 237 28 36 237 28 36 237 28 36 237 28 36 237 28 36 237 28 36 237 28 36 237 28 36 237 28 36 237 28 36 237 28 36 237 28 36 237 28 36 237 28 36 237 28 36 237 28 36 237 28 36 237 28 36 237 28 36 237 28 36 237 28 36 237 28 36 237 28 36 237 28 36 237 28 36 237 28 36 237 28 36 237 28 36 237 28 36 237 28 36 237 28 36 237 28 36 237 28 36 237 28 36 237 28 36 237 28 36 237 28 36 237 28 36 237 28 36 237 28 36 237 28 36 237 28 36 237 28 36 237 28 36 237 28 36 237 28 36 237 28 36 237 28 36 
237 28 36 237 28 36 237 28 36 237 28 36 237 28 36 237 28 36 237 28 36 237 28 36 237 28 36 237 28 36 237 28 36 237 28 36 237 28 36 237 28 36 237 28 36 237 28 36 237 28 36 237 28 36 237 28 36 237 28 36 237 28 36 237 28 36 237 28 36 237 28 36 237 28 36 237 28 36 237 28 36 237 28 36 237 28 36 237 28 36 237 28 36 237 28 36 237 28 36 237 28 36 237 28 36 237 28 36 237 28 36 237 28 36 237 28 36 237 28 36 237 28 36 237 28 36 237 28 36 237 28 36 237 28 36 237 28 36 237 28 36 237 28 36 237 28 36 
237 28 36 237 28 36 237 28 36 237 28 36 0 162 232 0 162 232 0 162 232 0 162 232 0 162 232 0 162 232 0 162 232 0 162 232 0 162 232 0 162 232 0 162 232 0 162 232 0 162 232 0 162 232 0 162 232 0 162 232 0 162 232 0 162 232 0 162 232 0 162 232 0 162 232 0 162 232 0 162 232 0 162 232 0 162 232 0 162 232 0 162 232 0 162 232 0 162 232 0 162 232 0 162 232 0 162 232 0 162 232 0 162 232 0 162 232 0 162 232 0 162 232 0 162 232 0 162 232 0 162 232 0 162 232 0 162 232 0 162 232 237 28 36 237 28 36 
237 28 36 237 28 36 237 28 36 237 28 36 0 162 232 0 162 232 0 162 232 0 162 232 0 162 232 0 162 232 0 162 232 0 162 232 0 162 232 0 162 232 0 162 232 0 162 232 0 162 232 0 162 232 0 162 232 0 162 232 0 162 232 0 162 232 0 162 232 0 162 232 0 162 232 0 162 232 0 162 232 0 162 232 0 162 232 0 162 232 0 162 232 0 162 232 0 162 232 0 162 232 0 162 232 0 162 232 0 162 232 0 162 232 0 162 232 0 162 232 0 162 232 0 162 232 0 162 232 0 162 232 0 162 232 0 162 232 0 162 232 237 28 36 237 28 36 
237 28 36 237 28 36 237 28 36 237 28 36 0 162 232 0 162 232 0 162 232 0 162 232 0 162 232 0 162 232 0 162 232 0 162 232 0 162 232 0 162 232 0 162 232 0 162 232 0 162 232 0 162 232 0 162 232 0 162 232 0 162 232 0 162 232 0 162 232 0 162 232 0 162 232 0 162 232 0 162 232 0 162 232 0 162 232 0 162 232 0 162 232 0 162 232 0 162 232 0 162 232 0 162 232 0 162 232 0 162 232 0 162 232 0 162 232 0 162 232 0 162 232 0 162 232 0 162 232 0 162 232 0 162 232 0 162 232 0 162 232 237 28 36 237 28 36 
237 28 36 237 28 36 237 28 36 237 28 36 0 162 232 0 162 232 0 162 232 0 162 232 0 162 232 0 162 232 0 162 232 0 162 232 0 162 232 0 162 232 0 162 232 0 162 232 0 162 232 0 162 232 0 162 232 0 162 232 0 162 232 0 162 232 0 162 232 0 162 232 0 162 232 0 162 232 0 162 232 0 162 232 0 162 232 0 162 232 0 162 232 0 162 232 0 162 232 0 162 232 0 162 232 0 162 232 0 162 232 0 162 232 0 162 232 0 162 232 0 162 232 0 162 232 0 162 232 0 162 232 0 162 232 0 162 232 0 162 232 237 28 36 237 28 36 
237 28 36 237 28 36 237 28 36 237 28 36 0 162 232 0 162 232 0 162 232 0 162 232 0 162 232 0 162 232 0 162 232 0 162 232 0 162 232 0 162 232 0 162 232 0 162 232 0 162 232 0 162 232 0 162 232 0 162 232 0 162 232 0 162 232 0 162 232 0 162 232 0 162 232 0 162 232 0 162 232 0 162 232 0 162 232 0 162 232 0 162 232 0 162 232 0 162 232 0 162 232 0 162 232 0 162 232 0 162 232 0 162 232 0 162 232 0 162 232 0 162 232 0 162 232 0 162 232 0 162 232 0 162 232 0 162 232 0 162 232 237 28 36 237 28 36 
237 28 36 237 28 36 237 28 36 237 28 36 0 162 232 0 162 232 0 162 232 0 162 232 0 162 232 0 162 232 0 162 232 0 162 232 0 162 232 0 162 232 0 162 232 0 162 232 0 162 232 0 162 232 0 162 232 0 162 232 0 162 232 0 162 232 0 162 232 0 162 232 0 162 232 0 162 232 0 162 232 0 162 232 0 162 232 0 162 232 0 162 232 0 162 232 0 162 232 0 162 232 0 162 232 0 162 232 0 162 232 0 162 232 0 162 232 0 162 232 0 162 232 0 162 232 0 162 232 0 162 232 0 162 232 0 162 232 0 162 232 237 28 36 237 28 36 
237 28 36 237 28 36 237 28 36 237 28 36 0 162 232 0 162 232 0 162 232 0 162 232 0 162 232 0 162 232 0 162 232 0 162 232 0 162 232 0 162 232 0 162 232 0 162 232 0 162 232 0 162 232 0 162 232 0 162 232 0 162 232 0 162 232 0 162 232 0 162 232 0 162 232 0 162 232 0 162 232 0 162 232 0 162 232 0 162 232 0 162 232 0 162 232 0 162 232 0 162 232 0 162 232 0 162 232 0 162 232 0 162 232 0 162 232 0 162 232 0 162 232 0 162 232 0 162 232 0 162 232 0 162 232 0 162 232 0 162 232 237 28 36 237 28 36 
237 28 36 237 28 36 237 28 36 237 28 36 0 162 232 0 162 232 0 162 232 0 162 232 0 162 232 0 162 232 0 162 232 0 162 232 0 162 232 0 162 232 0 162 232 0 162 232 0 162 232 0 162 232 0 162 232 0 162 232 0 162 232 0 162 232 0 162 232 0 162 232 0 162 232 0 162 232 0 162 232 0 162 232 0 162 232 0 162 232 0 162 232 0 162 232 0 162 232 0 162 232 0 162 232 0 162 232 0 162 232 0 162 232 0 162 232 0 162 232 0 162 232 0 162 232 0 162 232 0 162 232 0 162 232 0 162 232 0 162 232 237 28 36 237 28 36 
237 28 36 237 28 36 237 28 36 237 28 36 237 28 36 237 28 36 237 28 36 237 28 36 237 28 36 237 28 36 237 28 36 237 28 36 237 28 36 237 28 36 237 28 36 237 28 36 237 28 36 237 28 36 237 28 36 237 28 36 237 28 36 237 28 36 237 28 36 237 28 36 237 28 36 237 28 36 237 28 36 237 28 36 237 28 36 237 28 36 237 28 36 237 28 36 237 28 36 237 28 36 237 28 36 237 28 36 237 28 36 237 28 36 237 28 36 237 28 36 237 28 36 237 28 36 237 28 36 237 28 36 237 28 36 237 28 36 237 28 36 237 28 36 237 28 36 
237 28 36 237 28 36 237 28 36 237 28 36 237 28 36 237 28 36 237 28 36 237 28 36 237 28 36 237 28 36 237 28 36 237 28 36 237 28 36 237 28 36 237 28 36 237 28 36 237 28 36 237 28 36 237 28 36 237 28 36 237 28 36 237 28 36 237 28 36 237 28 36 237 28 36 237 28 36 237 28 36 237 28 36 237 28 36 237 28 36 237 28 36 237 28 36 237 28 36 237 28 36 237 28 36 237 28 36 237 28 36 237 28 36 237 28 36 237 28 36 237 28 36 237 28 36 237 28 36 237 28 36 237 28 36 237 28 36 237 28 36 237 28 36 237 28 36 
237 28 36 237 28 36 237 28 36 237 28 36 237 28 36 237 28 36 237 28 36 237 28 36 237 28 36 237 28 36 237 28 36 237 28 36 237 28 36 237 28 36 237 28 36 237 28 36 237 28 36 237 28 36 237 28 36 237 28 36 237 28 36 237 28 36 237 28 36 237 28 36 237 28 36 237 28 36 237 28 36 237 28 36 237 28 36 237 28 36 237 28 36 237 28 36 237 28 36 237 28 36 237 28 36 237 28 36 237 28 36 237 28 36 237 28 36 237 28 36 237 28 36 237 28 36 237 28 36 237 28 36 237 28 36 237 28 36 237 28 36 237 28 36 237 28 36 
237 28 36 237 28 36 237 28 36 237 28 36 237 28 36 237 28 36 237 28 36 237 28 36 237 28 36 237 28 36 237 28 36 237 28 36 237 28 36 237 28 36 237 28 36 237 28 36 237 28 36 237 28 36 237 28 36 237 28 36 237 28 36 237 28 36 237 28 36 237 28 36 237 28 36 237 28 36 237 28 36 237 28 36 237 28 36 237 28 36 237 28 36 237 28 36 237 28 36 237 28 36 237 28 36 237 28 36 237 28 36 237 28 36 237 28 36 237 28 36 237 28 36 237 28 36 237 28 36 237 28 36 237 28 36 237 28 36 237 28 36 237 28 36 237 28 36 
237 28 36 237 28 36 237 28 36 237 28 36 237 28 36 237 28 36 237 28 36 237 28 36 237 28 36 237 28 36 237 28 36 237 28 36 237 28 36 237 28 36 237 28 36 237 28 36 237 28 36 237 28 36 237 28 36 237 28 36 237 28 36 237 28 36 237 28 36 237 28 36 237 28 36 237 28 36 237 28 36 237 28 36 237 28 36 237 28 36 237 28 36 237 28 36 237 28 36 237 28 36 237 28 36 237 28 36 237 28 36 237 28 36 237 28 36 237 28 36 237 28 36 237 28 36 237 28 36 237 28 36 237 28 36 237 28 36 237 28 36 237 28 36 237 28 36 
237 28 36 237 28 36 237 28 36 237 28 36 237 28 36 237 28 36 237 28 36 237 28 36 237 28 36 237 28 36 237 28 36 237 28 36 237 28 36 237 28 36 237 28 36 237 28 36 237 28 36 237 28 36 237 28 36 237 28 36 237 28 36 237 28 36 237 28 36 237 28 36 237 28 36 237 28 36 237 28 36 237 28 36 237 28 36 237 28 36 237 28 36 237 28 36 237 28 36 237 28 36 237 28 36 237 28 36 237 28 36 237 28 36 237 28 36 237 28 36 237 28 36 237 28 36 237 28 36 237 28 36 237 28 36 237 28 36 237 28 36 237 28 36 237 28 36 
237 28 36 237 28 36 237 28 36 237 28 36 237 28 36 237 28 36 237 28 36 237 28 36 237 28 36 237 28 36 237 28 36 237 28 36 237 28 36 237 28 36 237 28 36 237 28 36 237 28 36 237 28 36 237 28 36 237 28 36 237 28 36 237 28 36 237 28 36 237 28 36 237 28 36 237 28 36 237 28 36 237 28 36 237 28 36 237 28 36 237 28 36 237 28 36 237 28 36 237 28 36 237 28 36 237 28 36 237 28 36 237 28 36 237 28 36 237 28 36 237 28 36 237 28 36 237 28 36 237 28 36 237 28 36 237 28 36 237 28 36 237 28 36 237 28 36 
237 28 36 237 28 36 237 28 36 237 28 36 237 28 36 237 28 36 237 28 36 237 28 36 237 28 36 237 28 36 237 28 36 237 28 36 237 28 36 237 28 36 237 28 36 237 28 36 237 28 36 237 28 36 237 28 36 237 28 36 237 28 36 237 28 36 237 28 36 237 28 36 237 28 36 237 28 36 237 28 36 237 28 36 237 28 36 237 28 36 237 28 36 237 28 36 237 28 36 237 28 36 237 28 36 237 28 36 237 28 36 237 28 36 237 28 36 237 28 36 237 28 36 237 28 36 237 28 36 237 28 36 237 28 36 237 28 36 237 28 36 237 28 36 237 28 36 
237 28 36 237 28 36 237 28 36 255 127 39 255 127 39 255 127 39 255 127 39 255 127 39 255 127 39 255 127 39 255 127 39 255 127 39 255 127 39 255 127 39 255 127 39 255 127 39 255 127 39 255 127 39 255 127 39 255 127 39 255 127 39 255 127 39 255 127 39 255 127 39 255 127 39 255 127 39 255 127 39 255 127 39 255 127 39 255 127 39 255 127 39 255 127 39 255 127 39 255 127 39 255 127 39 255 127 39 255 127 39 255 127 39 255 127 39 255 127 39 255 127 39 255 127 39 255 127 39 255 127 39 255 127 39 255 127 39 237 28 36 237 28 36 237 28 36 
237 28 36 237 28 36 237 28 36 255 127 39 255 127 39 255 127 39 255 127 39 255 127 39 255 127 39 255 127 39 255 127 39 255 127 39 255 127 39 255 127 39 255 127 39 255 127 39 255 127 39 255 127 39 255 127 39 255 127 39 255 127 39 255 127 39 255 127 39 255 127 39 255 127 39 255 127 39 255 127 39 255 127 39 255 127 39 255 127 39 255 127 39 255 127 39 255 127 39 255 127 39 255 127 39 255 127 39 255 127 39 255 127 39 255 127 39 255 127 39 255 127 39 255 127 39 255 127 39 255 127 39 255 127 39 255 127 39 237 28 36 237 28 36 237 28 36 
237 28 36 237 28 36 237 28 36 255 127 39 255 127 39 255 127 39 255 127 39 255 127 39 255 127 39 255 127 39 255 127 39 255 127 39 255 127 39 255 127 39 255 127 39 255 127 39 255 127 39 255 127 39 255 127 39 255 127 39 255 127 39 255 127 39 255 127 39 255 127 39 255 127 39 255 127 39 255 127 39 255 127 39 255 127 39 255 127 39 255 127 39 255 127 39 255 127 39 255 127 39 255 127 39 255 127 39 255 127 39 255 127 39 255 127 39 255 127 39 255 127 39 255 127 39 255 127 39 255 127 39 255 127 39 255 127 39 237 28 36 237 28 36 237 28 36 
237 28 36 237 28 36 237 28 36 255 127 39 255 127 39 255 127 39 255 127 39 255 127 39 255 127 39 255 127 39 255 127 39 255 127 39 255 127 39 255 127 39 255 127 39 255 127 39 255 127 39 255 127 39 255 127 39 255 127 39 255 127 39 255 127 39 255 127 39 255 127 39 255 127 39 255 127 39 255 127 39 255 127 39 255 127 39 255 127 39 255 127 39 255 127 39 255 127 39 255 127 39 255 127 39 255 127 39 255 127 39 255 127 39 255 127 39 255 127 39 255 127 39 255 127 39 255 127 39 255 127 39 255 127 39 255 127 39 237 28 36 237 28 36 237 28 36 
237 28 36 237 28 36 237 28 36 255 127 39 255 127 39 255 127 39 255 127 39 255 127 39 255 127 39 255 127 39 255 127 39 255 127 39 255 127 39 255 127 39 255 127 39 255 127 39 255 127 39 255 127 39 255 127 39 255 127 39 255 127 39 255 127 39 255 127 39 255 127 39 255 127 39 255 127 39 255 127 39 255 127 39 255 127 39 255 127 39 255 127 39 255 127 39 255 127 39 255 127 39 255 127 39 255 127 39 255 127 39 255 127 39 255 127 39 255 127 39 255 127 39 255 127 39 255 127 39 255 127 39 255 127 39 255 127 39 237 28 36 237 28 36 237 28 36 
237 28 36 237 28 36 237 28 36 255 127 39 255 127 39 255 127 39 255 127 39 255 127 39 255 127 39 255 127 39 255 127 39 255 127 39 255 127 39 255 127 39 255 127 39 255 127 39 255 127 39 255 127 39 255 127 39 255 127 39 255 127 39 255 127 39 255 127 39 255 127 39 255 127 39 255 127 39 255 127 39 255 127 39 255 127 39 255 127 39 255 127 39 255 127 39 255 127 39 255 127 39 255 127 39 255 127 39 255 127 39 255 127 39 255 127 39 255 127 39 255 127 39 255 127 39 255 127 39 255 127 39 255 127 39 255 127 39 237 28 36 237 28 36 237 28 36 
237 28 36 237 28 36 237 28 36 255 127 39 255 127 39 255 127 39 255 127 39 255 127 39 255 127 39 255 127 39 255 127 39 255 127 39 255 127 39 255 127 39 255 127 39 255 127 39 255 127 39 255 127 39 255 127 39 255 127 39 255 127 39 255 127 39 255 127 39 255 127 39 255 127 39 255 127 39 255 127 39 255 127 39 255 127 39 255 127 39 255 127 39 255 127 39 255 127 39 255 127 39 255 127 39 255 127 39 255 127 39 255 127 39 255 127 39 255 127 39 255 127 39 255 127 39 255 127 39 255 127 39 255 127 39 255 127 39 237 28 36 237 28 36 237 28 36 
237 28 36 237 28 36 237 28 36 255 127 39 255 127 39 255 127 39 255 127 39 255 127 39 255 127 39 255 127 39 255 127 39 255 127 39 255 127 39 255 127 39 255 127 39 255 127 39 255 127 39 255 127 39 255 127 39 255 127 39 255 127 39 255 127 39 255 127 39 255 127 39 255 127 39 255 127 39 255 127 39 255 127 39 255 127 39 255 127 39 255 127 39 255 127 39 255 127 39 255 127 39 255 127 39 255 127 39 255 127 39 255 127 39 255 127 39 255 127 39 255 127 39 255 127 39 255 127 39 255 127 39 255 127 39 255 127 39 237 28 36 237 28 36 237 28 36 
237 28 36 237 28 36 237 28 36 255 127 39 255 127 39 255 127 39 255 127 39 255 127 39 255 127 39 255 127 39 255 127 39 255 127 39 255 127 39 255 127 39 255 127 39 255 127 39 255 127 39 255 127 39 255 127 39 255 127 39 255 127 39 255 127 39 255 127 39 255 127 39 255 127 39 255 127 39 255 127 39 255 127 39 255 127 39 255 127 39 255 127 39 255 127 39 255 127 39 255 127 39 255 127 39 255 127 39 255 127 39 255 127 39 255 127 39 255 127 39 255 127 39 255 127 39 255 127 39 255 127 39 255 127 39 255 127 39 237 28 36 237 28 36 237 28 36 
237 28 36 237 28 36 237 28 36 237 28 36 237 28 36 237 28 36 237 28 36 237 28 36 237 28 36 237 28 36 237 28 36 237 28 36 237 28 36 237 28 36 237 28 36 237 28 36 237 28 36 237 28 36 237 28 36 237 28 36 237 28 36 237 28 36 237 28 36 237 28 36 237 28 36 237 28 36 237 28 36 237 28 36 237 28 36 237 28 36 237 28 36 237 28 36 237 28 36 237 28 36 237 28 36 237 28 36 237 28 36 237 28 36 237 28 36 237 28 36 237 28 36 237 28 36 237 28 36 237 28 36 237 28 36 237 28 36 237 28 36 237 28 36 237 28 36 
237 28 36 237 28 36 237 28 36 237 28 36 237 28 36 237 28 36 237 28 36 237 28 36 237 28 36 237 28 36 237 28 36 237 28 36 237 28 36 237 28 36 237 28 36 237 28 36 237 28 36 237 28 36 237 28 36 237 28 36 237 28 36 237 28 36 237 28 36 237 28 36 237 28 36 237 28 36 237 28 36 237 28 36 237 28 36 237 28 36 237 28 36 237 28 36 237 28 36 237 28 36 237 28 36 237 28 36 237 28 36 237 28 36 237 28 36 237 28 36 237 28 36 237 28 36 237 28 36 237 28 36 237 28 36 237 28 36 237 28 36 237 28 36 237 28 36 
237 28 36 237 28 36 237 28 36 237 28 36 237 28 36 237 28 36 237 28 36 237 28 36 237 28 36 237 28 36 237 28 36 237 28 36 237 28 36 237 28 36 237 28 36 237 28 36 237 28 36 237 28 36 237 28 36 237 28 36 237 28 36 237 28 36 237 28 36 237 28 36 237 28 36 237 28 36 237 28 36 237 28 36 237 28 36 237 28 36 237 28 36 237 28 36 237 28 36 237 28 36 237 28 36 237 28 36 237 28 36 237 28 36 237 28 36 237 28 36 237 28 36 237 28 36 237 28 36 237 28 36 237 28 36 237 28 36 237 28 36 237 28 36 237 28 36 
237 28 36 237 28 36 237 28 36 237 28 36 237 28 36 237 28 36 237 28 36 237 28 36 237 28 36 237 28 36 237 28 36 237 28 36 237 28 36 237 28 36 237 28 36 237 28 36 237 28 36 237 28 36 237 28 36 237 28 36 237 28 36 237 28 36 237 28 36 237 28 36 237 28 36 237 28 36 237 28 36 237 28 36 237 28 36 237 28 36 237 28 36 237 28 36 237 28 36 237 28 36 237 28 36 237 28 36 237 28 36 237 28 36 237 28 36 237 28 36 237 28 36 237 28 36 237 28 36 237 28 36 237 28 36 237 28 36 237 28 36 237 28 36 237 28 36 
